<svg width="30" height="30" viewBox="0 0 30 30" fill="none" xmlns="http://www.w3.org/2000/svg">
<path d="M24.2426 6.67497C22.4593 5.88121 20.5767 5.31809 18.6428 5C18.3782 5.45992 18.1388 5.93311 17.9255 6.4176C15.8656 6.11582 13.7708 6.11582 11.7109 6.4176C11.4975 5.93316 11.2581 5.45997 10.9936 5C9.05849 5.32078 7.17462 5.88524 5.38951 6.67912C1.84561 11.7767 0.884915 16.7476 1.36526 21.648C3.44066 23.1388 5.76362 24.2725 8.23317 25C8.78924 24.2729 9.28129 23.5015 9.7041 22.6941C8.90103 22.4025 8.12593 22.0427 7.38776 21.6189C7.58203 21.4819 7.77204 21.3408 7.95564 21.2038C10.1035 22.1859 12.4479 22.695 14.8214 22.695C17.195 22.695 19.5393 22.1859 21.6872 21.2038C21.8729 21.3512 22.0629 21.4923 22.2551 21.6189C21.5155 22.0434 20.7389 22.4038 19.9344 22.6961C20.3567 23.5032 20.8488 24.2739 21.4054 25C23.877 24.2755 26.2018 23.1422 28.2776 21.6501C28.8412 15.9672 27.3147 11.0419 24.2426 6.67497ZM10.3125 18.6343C8.97397 18.6343 7.86811 17.4533 7.86811 16.0004C7.86811 14.5475 8.93555 13.3562 10.3083 13.3562C11.681 13.3562 12.7783 14.5475 12.7548 16.0004C12.7314 17.4533 11.6767 18.6343 10.3125 18.6343ZM19.3303 18.6343C17.9896 18.6343 16.888 17.4533 16.888 16.0004C16.888 14.5475 17.9554 13.3562 19.3303 13.3562C20.7051 13.3562 21.7939 14.5475 21.7704 16.0004C21.747 17.4533 20.6945 18.6343 19.3303 18.6343Z" fill="white"/>
</svg>
