<svg width="30" height="30" viewBox="0 0 30 30" fill="none" xmlns="http://www.w3.org/2000/svg">
<path d="M9.41982 7.93473C10.8368 7.92524 12.2247 8.33751 13.4073 9.1194C14.5899 9.90129 15.5139 11.0176 16.0621 12.3264C16.6103 13.6352 16.7579 15.0775 16.4862 16.4705C16.2145 17.8634 15.5357 19.1441 14.5361 20.15C13.5364 21.156 12.2609 21.8417 10.8714 22.1204C9.48195 22.399 8.04119 22.2578 6.73194 21.7148C5.4227 21.1719 4.304 20.2516 3.51785 19.0708C2.7317 17.89 2.31354 16.5018 2.31642 15.0825C2.31349 13.1916 3.05989 11.3769 4.39172 10.0367C5.72355 8.69657 7.53194 7.94059 9.41982 7.93473ZM20.761 8.35481C22.7217 8.35481 24.3109 11.3723 24.3109 15.0973C24.3109 18.8222 22.7217 21.8397 20.761 21.8397C18.8003 21.8397 17.2111 18.8222 17.2111 15.0973C17.2111 11.3723 18.8003 8.35481 20.761 8.35481ZM26.2495 9.05841C26.941 9.05841 27.5002 11.7628 27.5002 15.0973C27.5002 18.4317 26.941 21.1397 26.2495 21.1397C25.5579 21.1397 25.0024 18.4354 25.0024 15.0973C25.0024 11.7592 25.5616 9.05841 26.2495 9.05841Z" fill="white"/>
</svg>
