<svg width="24" height="24" viewBox="0 0 24 24" fill="none" xmlns="http://www.w3.org/2000/svg">
<mask id="mask0_598_64608" style="mask-type:alpha" maskUnits="userSpaceOnUse" x="0" y="0" width="24" height="24">
<rect width="24" height="24" fill="#D9D9D9"/>
</mask>
<g mask="url(#mask0_598_64608)">
<path d="M7.62578 6.4001L12.0008 0.725098L16.3758 6.4001L23.2258 8.7001L18.9008 14.8251L19.0758 21.6501L12.0008 19.6751L4.92578 21.6501L5.10078 14.8001L0.800781 8.7001L7.62578 6.4001ZM8.85078 8.1251L4.00078 9.7251L7.10078 14.2001L7.00078 18.9751L12.0008 17.6001L17.0008 19.0001L16.9008 14.2001L20.0008 9.7751L15.1508 8.1251L12.0008 4.0001L8.85078 8.1251Z" fill="white"/>
<path d="M15.5 19H8.4V16.95C8.4 16.2167 8.76667 15.625 9.5 15.175C10.2333 14.725 10.9888 14.4894 12 14.5C12.9736 14.5102 13.6667 14.725 14.4 15.175C15.1333 15.625 15.5 16.2167 15.5 16.95V19Z" fill="white"/>
<path d="M13.4125 12.9125C13.0208 13.3042 12.55 13.5 12 13.5C11.45 13.5 10.9792 13.3042 10.5875 12.9125C10.1958 12.5208 10 12.05 10 11.5C10 10.95 10.1958 10.4792 10.5875 10.0875C10.9792 9.69583 11.45 9.5 12 9.5C12.55 9.5 13.0208 9.69583 13.4125 10.0875C13.8042 10.4792 14 10.95 14 11.5C14 12.05 13.8042 12.5208 13.4125 12.9125Z" fill="white"/>
</g>
</svg>
