<svg width="24" height="24" viewBox="0 0 24 24" fill="none" xmlns="http://www.w3.org/2000/svg">
<mask id="mask0_598_64615" style="mask-type:alpha" maskUnits="userSpaceOnUse" x="0" y="0" width="24" height="24">
<rect width="24" height="24" fill="black"/>
</mask>
<g mask="url(#mask0_598_64615)">
<path d="M12 3V6.3C12 6.86667 12.1958 7.34167 12.5875 7.725C12.9792 8.10833 13.4583 8.3 14.025 8.3C14.325 8.3 14.6042 8.2375 14.8625 8.1125C15.1208 7.9875 15.35 7.8 15.55 7.55L16 7C17.2333 7.7 18.2083 8.675 18.925 9.925C19.6417 11.175 20 12.5333 20 14C20 16.2333 19.225 18.125 17.675 19.675C16.125 21.225 14.2333 22 12 22C9.76667 22 7.875 21.225 6.325 19.675C4.775 18.125 4 16.2333 4 14C4 11.85 4.72083 9.80833 6.1625 7.875C7.60417 5.94167 9.55 4.31667 12 3Z" fill="black"/>
</g>
</svg>
