<svg width="24" height="24" viewBox="0 0 24 24" fill="none" xmlns="http://www.w3.org/2000/svg">
<mask id="mask0_597_64595" style="mask-type:alpha" maskUnits="userSpaceOnUse" x="0" y="0" width="24" height="24">
<rect width="24" height="24" fill="#D9D9D9"/>
</mask>
<g mask="url(#mask0_597_64595)">
<path fill-rule="evenodd" clip-rule="evenodd" d="M4 9.725L8.85 8.125L12 4L15.15 8.125L20 9.775L16.9 14.2L17 19L15.4992 18.5798V16.9499C15.4992 16.2166 15.1326 15.6249 14.3992 15.1749C13.6659 14.7249 12.9732 14.5101 11.9996 14.4999C10.9884 14.4893 10.3326 14.7249 9.59922 15.1749C8.86589 15.6249 8.49922 16.2166 8.49922 16.9499V18.5627L7 18.975L7.1 14.2L4 9.725ZM11.9996 13.4999C12.5496 13.4999 13.0204 13.3041 13.4121 12.9124C13.8038 12.5207 13.9996 12.0499 13.9996 11.4999C13.9996 10.9499 13.8038 10.4791 13.4121 10.0874C13.0204 9.69573 12.5496 9.4999 11.9996 9.4999C11.4496 9.4999 10.9788 9.69573 10.5871 10.0874C10.1954 10.4791 9.99961 10.9499 9.99961 11.4999C9.99961 12.0499 10.1954 12.5207 10.5871 12.9124C10.9788 13.3041 11.4496 13.4999 11.9996 13.4999Z" fill="white"/>
</g>
</svg>
