<svg width="24" height="24" viewBox="0 0 24 24" fill="none" xmlns="http://www.w3.org/2000/svg">
<mask id="mask0_504_9669" style="mask-type:alpha" maskUnits="userSpaceOnUse" x="0" y="0" width="24" height="24">
<rect width="24" height="24" fill="#D9D9D9"/>
</mask>
<g mask="url(#mask0_504_9669)">
<path d="M11.9992 23.3002L8.64922 20.0002H3.99922V15.3502L0.699219 12.0002L3.99922 8.6502V4.0002H8.64922L11.9992 0.700195L15.3492 4.0002H19.9992V8.6502L23.2992 12.0002L19.9992 15.3502V20.0002H15.3492L11.9992 23.3002ZM11.9992 17.0002C13.3826 17.0002 14.5617 16.5127 15.5367 15.5377C16.5117 14.5627 16.9992 13.3835 16.9992 12.0002C16.9992 10.6169 16.5117 9.4377 15.5367 8.4627C14.5617 7.4877 13.3826 7.0002 11.9992 7.0002C10.6159 7.0002 9.43672 7.4877 8.46172 8.4627C7.48672 9.4377 6.99922 10.6169 6.99922 12.0002C6.99922 13.3835 7.48672 14.5627 8.46172 15.5377C9.43672 16.5127 10.6159 17.0002 11.9992 17.0002ZM11.9992 15.0002C11.1659 15.0002 10.4576 14.7085 9.87422 14.1252C9.29089 13.5419 8.99922 12.8335 8.99922 12.0002C8.99922 11.1669 9.29089 10.4585 9.87422 9.8752C10.4576 9.29186 11.1659 9.0002 11.9992 9.0002C12.8326 9.0002 13.5409 9.29186 14.1242 9.8752C14.7076 10.4585 14.9992 11.1669 14.9992 12.0002C14.9992 12.8335 14.7076 13.5419 14.1242 14.1252C13.5409 14.7085 12.8326 15.0002 11.9992 15.0002ZM11.9992 20.5002L14.4992 18.0002H17.9992V14.5002L20.4992 12.0002L17.9992 9.5002V6.0002H14.4992L11.9992 3.5002L9.49922 6.0002H5.99922V9.5002L3.49922 12.0002L5.99922 14.5002V18.0002H9.49922L11.9992 20.5002Z" fill="white"/>
</g>
</svg>
