<svg width="24" height="24" viewBox="0 0 24 24" fill="none" xmlns="http://www.w3.org/2000/svg">
<mask id="mask0_480_509" style="mask-type:alpha" maskUnits="userSpaceOnUse" x="0" y="0" width="24" height="24">
<rect width="24" height="24" fill="#D9D9D9"/>
</mask>
<g mask="url(#mask0_480_509)">
<path d="M6 17H18L14.25 12L11.25 16L9 13L6 17ZM3 21V3H21V21H3ZM5 19H19V5H5V19ZM8.5 10C8.91667 10 9.27083 9.85417 9.5625 9.5625C9.85417 9.27083 10 8.91667 10 8.5C10 8.08333 9.85417 7.72917 9.5625 7.4375C9.27083 7.14583 8.91667 7 8.5 7C8.08333 7 7.72917 7.14583 7.4375 7.4375C7.14583 7.72917 7 8.08333 7 8.5C7 8.91667 7.14583 9.27083 7.4375 9.5625C7.72917 9.85417 8.08333 10 8.5 10Z" fill="white"/>
</g>
</svg>
