<svg width="24" height="24" viewBox="0 0 24 24" fill="none" xmlns="http://www.w3.org/2000/svg">
<mask id="mask0_480_510" style="mask-type:alpha" maskUnits="userSpaceOnUse" x="0" y="0" width="24" height="24">
<rect width="24" height="24" fill="#D9D9D9"/>
</mask>
<g mask="url(#mask0_480_510)">
<path fill-rule="evenodd" clip-rule="evenodd" d="M8.84922 18.8L9.24922 22H14.7492L15.1492 18.8C15.3492 18.7167 15.5492 18.6167 15.7492 18.5C15.9492 18.3833 16.1409 18.2583 16.3242 18.125L19.2742 19.375L22.0242 14.625L19.4492 12.675C19.4826 12.5583 19.4992 12.4458 19.4992 12.3375V11.6625C19.4992 11.5542 19.4909 11.4417 19.4742 11.325L22.0492 9.375L19.2992 4.625L16.3242 5.875C16.1409 5.74167 15.9534 5.61667 15.7617 5.5C15.5701 5.38333 15.3659 5.28333 15.1492 5.2L14.7492 2H9.24922L8.84922 5.2C8.64922 5.28333 8.44922 5.38333 8.24922 5.5C8.04922 5.61667 7.85755 5.74167 7.67422 5.875L4.69922 4.625L1.94922 9.375L4.52422 11.325C4.50755 11.4417 4.49922 11.5542 4.49922 11.6625V12.3375C4.49922 12.4458 4.50755 12.5583 4.52422 12.675L1.94922 14.625L4.69922 19.375L7.67422 18.125C7.85755 18.2583 8.04505 18.3833 8.23672 18.5C8.42839 18.6167 8.63255 18.7167 8.84922 18.8ZM12.9742 20H10.9992L10.6742 17.35C10.1576 17.2167 9.67839 17.0208 9.23672 16.7625C8.79505 16.5042 8.39089 16.1833 8.02422 15.8L5.54922 16.85L4.57422 15.15L6.72422 13.525C6.64089 13.275 6.58255 13.025 6.54922 12.775C6.51589 12.525 6.49922 12.2667 6.49922 12C6.49922 11.7167 6.51589 11.45 6.54922 11.2C6.58255 10.95 6.64089 10.7 6.72422 10.45L4.57422 8.85L5.54922 7.15L8.02422 8.175C8.39089 7.80833 8.79505 7.49583 9.23672 7.2375C9.67839 6.97917 10.1576 6.78333 10.6742 6.65L11.0242 4H12.9992L13.3242 6.65C13.8409 6.78333 14.3201 6.97917 14.7617 7.2375C15.2034 7.49583 15.6076 7.81667 15.9742 8.2L18.4492 7.15L19.4242 8.85L17.2742 10.475C17.3576 10.7083 17.4159 10.9542 17.4492 11.2125C17.4826 11.4708 17.4992 11.7333 17.4992 12C17.4992 12.2667 17.4826 12.5292 17.4492 12.7875C17.4159 13.0458 17.3576 13.2917 17.2742 13.525L19.4242 15.15L18.4492 16.85L15.9742 15.825C15.6076 16.1917 15.2034 16.5042 14.7617 16.7625C14.3201 17.0208 13.8409 17.2167 13.3242 17.35L12.9742 20ZM14.5242 14.475C13.8409 15.1583 13.0159 15.5 12.0492 15.5C11.0659 15.5 10.2367 15.1583 9.56172 14.475C8.88672 13.7917 8.54922 12.9667 8.54922 12C8.54922 11.0333 8.88672 10.2083 9.56172 9.525C10.2367 8.84167 11.0659 8.5 12.0492 8.5C13.0159 8.5 13.8409 8.84167 14.5242 9.525C15.2076 10.2083 15.5492 11.0333 15.5492 12C15.5492 12.9667 15.2076 13.7917 14.5242 14.475ZM12 13.5C12.8284 13.5 13.5 12.8284 13.5 12C13.5 11.1716 12.8284 10.5 12 10.5C11.1716 10.5 10.5 11.1716 10.5 12C10.5 12.8284 11.1716 13.5 12 13.5Z" fill="white"/>
</g>
</svg>
